<svg xmlns="http://www.w3.org/2000/svg" xmlns:xlink="http://www.w3.org/1999/xlink" width="500" zoomAndPan="magnify" viewBox="0 0 375 374.999991" height="500" preserveAspectRatio="xMidYMid meet" version="1.0"><defs><clipPath id="e75e17aaed"><path d="M 54 46 L 322 46 L 322 314 L 54 314 Z M 54 46 " clip-rule="nonzero"/></clipPath><clipPath id="15c97c2d93"><path d="M 321.246094 180 C 321.246094 253.78125 261.4375 313.59375 187.652344 313.59375 C 113.871094 313.59375 54.058594 253.78125 54.058594 180 C 54.058594 106.21875 113.871094 46.40625 187.652344 46.40625 C 261.4375 46.40625 321.246094 106.21875 321.246094 180 Z M 321.246094 180 " clip-rule="nonzero"/></clipPath><linearGradient x1="15.397689" gradientTransform="matrix(8.906251, 0, 0, 8.906251, 45.153712, 37.499999)" y1="-1.944808" x2="22.491925" gradientUnits="userSpaceOnUse" y2="32.740183" id="401e94c0f0"><stop stop-opacity="1" stop-color="rgb(0%, 95.298767%, 62.399292%)" offset="0"/><stop stop-opacity="1" stop-color="rgb(0%, 95.298767%, 62.399292%)" offset="0.0625"/><stop stop-opacity="1" stop-color="rgb(0.0137329%, 95.20874%, 62.373352%)" offset="0.09375"/><stop stop-opacity="1" stop-color="rgb(0.0518799%, 94.958496%, 62.30011%)" offset="0.109375"/><stop stop-opacity="1" stop-color="rgb(0.100708%, 94.638062%, 62.208557%)" offset="0.125"/><stop stop-opacity="1" stop-color="rgb(0.14801%, 94.319153%, 62.117004%)" offset="0.140625"/><stop stop-opacity="1" stop-color="rgb(0.196838%, 93.998718%, 62.023926%)" offset="0.15625"/><stop stop-opacity="1" stop-color="rgb(0.245667%, 93.678284%, 61.932373%)" offset="0.169803"/><stop stop-opacity="1" stop-color="rgb(0.270081%, 93.519592%, 61.886597%)" offset="0.171875"/><stop stop-opacity="1" stop-color="rgb(0.294495%, 93.359375%, 61.839294%)" offset="0.1875"/><stop stop-opacity="1" stop-color="rgb(0.343323%, 93.03894%, 61.747742%)" offset="0.203125"/><stop stop-opacity="1" stop-color="rgb(0.392151%, 92.720032%, 61.656189%)" offset="0.21875"/><stop stop-opacity="1" stop-color="rgb(0.440979%, 92.399597%, 61.56311%)" offset="0.234375"/><stop stop-opacity="1" stop-color="rgb(0.489807%, 92.080688%, 61.471558%)" offset="0.25"/><stop stop-opacity="1" stop-color="rgb(0.538635%, 91.760254%, 61.380005%)" offset="0.265625"/><stop stop-opacity="1" stop-color="rgb(0.587463%, 91.441345%, 61.286926%)" offset="0.28125"/><stop stop-opacity="1" stop-color="rgb(0.636292%, 91.120911%, 61.195374%)" offset="0.296875"/><stop stop-opacity="1" stop-color="rgb(0.68512%, 90.800476%, 61.102295%)" offset="0.3125"/><stop stop-opacity="1" stop-color="rgb(0.733948%, 90.481567%, 61.010742%)" offset="0.328125"/><stop stop-opacity="1" stop-color="rgb(0.782776%, 90.161133%, 60.919189%)" offset="0.34375"/><stop stop-opacity="1" stop-color="rgb(0.831604%, 89.842224%, 60.826111%)" offset="0.359375"/><stop stop-opacity="1" stop-color="rgb(0.880432%, 89.52179%, 60.734558%)" offset="0.375"/><stop stop-opacity="1" stop-color="rgb(0.92926%, 89.202881%, 60.643005%)" offset="0.390625"/><stop stop-opacity="1" stop-color="rgb(0.978088%, 88.882446%, 60.549927%)" offset="0.40625"/><stop stop-opacity="1" stop-color="rgb(1.026917%, 88.563538%, 60.458374%)" offset="0.421875"/><stop stop-opacity="1" stop-color="rgb(1.075745%, 88.243103%, 60.365295%)" offset="0.4375"/><stop stop-opacity="1" stop-color="rgb(1.124573%, 87.922668%, 60.273743%)" offset="0.453125"/><stop stop-opacity="1" stop-color="rgb(1.173401%, 87.60376%, 60.18219%)" offset="0.46875"/><stop stop-opacity="1" stop-color="rgb(1.222229%, 87.283325%, 60.089111%)" offset="0.484375"/><stop stop-opacity="1" stop-color="rgb(1.271057%, 86.964417%, 59.997559%)" offset="0.5"/><stop stop-opacity="1" stop-color="rgb(1.319885%, 86.643982%, 59.906006%)" offset="0.515625"/><stop stop-opacity="1" stop-color="rgb(1.368713%, 86.325073%, 59.812927%)" offset="0.53125"/><stop stop-opacity="1" stop-color="rgb(1.417542%, 86.004639%, 59.721375%)" offset="0.546875"/><stop stop-opacity="1" stop-color="rgb(1.46637%, 85.68573%, 59.628296%)" offset="0.5625"/><stop stop-opacity="1" stop-color="rgb(1.515198%, 85.365295%, 59.536743%)" offset="0.578125"/><stop stop-opacity="1" stop-color="rgb(1.564026%, 85.044861%, 59.44519%)" offset="0.59375"/><stop stop-opacity="1" stop-color="rgb(1.611328%, 84.725952%, 59.352112%)" offset="0.609375"/><stop stop-opacity="1" stop-color="rgb(1.660156%, 84.405518%, 59.260559%)" offset="0.625"/><stop stop-opacity="1" stop-color="rgb(1.708984%, 84.086609%, 59.16748%)" offset="0.640625"/><stop stop-opacity="1" stop-color="rgb(1.757812%, 83.766174%, 59.075928%)" offset="0.65625"/><stop stop-opacity="1" stop-color="rgb(1.806641%, 83.447266%, 58.984375%)" offset="0.671875"/><stop stop-opacity="1" stop-color="rgb(1.855469%, 83.126831%, 58.891296%)" offset="0.6875"/><stop stop-opacity="1" stop-color="rgb(1.904297%, 82.807922%, 58.799744%)" offset="0.703125"/><stop stop-opacity="1" stop-color="rgb(1.953125%, 82.487488%, 58.708191%)" offset="0.71875"/><stop stop-opacity="1" stop-color="rgb(2.001953%, 82.168579%, 58.615112%)" offset="0.734375"/><stop stop-opacity="1" stop-color="rgb(2.050781%, 81.848145%, 58.52356%)" offset="0.75"/><stop stop-opacity="1" stop-color="rgb(2.099609%, 81.52771%, 58.430481%)" offset="0.765625"/><stop stop-opacity="1" stop-color="rgb(2.148438%, 81.208801%, 58.338928%)" offset="0.78125"/><stop stop-opacity="1" stop-color="rgb(2.197266%, 80.888367%, 58.247375%)" offset="0.796875"/><stop stop-opacity="1" stop-color="rgb(2.246094%, 80.569458%, 58.154297%)" offset="0.8125"/><stop stop-opacity="1" stop-color="rgb(2.294922%, 80.249023%, 58.062744%)" offset="0.828125"/><stop stop-opacity="1" stop-color="rgb(2.34375%, 79.930115%, 57.971191%)" offset="0.830197"/><stop stop-opacity="1" stop-color="rgb(2.368164%, 79.769897%, 57.925415%)" offset="0.84375"/><stop stop-opacity="1" stop-color="rgb(2.392578%, 79.60968%, 57.878113%)" offset="0.859375"/><stop stop-opacity="1" stop-color="rgb(2.441406%, 79.290771%, 57.78656%)" offset="0.875"/><stop stop-opacity="1" stop-color="rgb(2.490234%, 78.970337%, 57.693481%)" offset="0.890625"/><stop stop-opacity="1" stop-color="rgb(2.539062%, 78.649902%, 57.601929%)" offset="0.90625"/><stop stop-opacity="1" stop-color="rgb(2.587891%, 78.330994%, 57.510376%)" offset="0.921875"/><stop stop-opacity="1" stop-color="rgb(2.636719%, 78.010559%, 57.417297%)" offset="0.9375"/><stop stop-opacity="1" stop-color="rgb(2.679443%, 77.72522%, 57.3349%)" offset="1"/></linearGradient></defs><g clip-path="url(#e75e17aaed)"><g clip-path="url(#15c97c2d93)"><path fill="url(#401e94c0f0)" d="M 54.058594 46.40625 L 54.058594 313.59375 L 321.246094 313.59375 L 321.246094 46.40625 Z M 54.058594 46.40625 " fill-rule="nonzero"/></g></g><path fill="#ffffff" d="M 187.652344 123 C 156.171875 123 130.652344 148.519531 130.652344 180 C 130.652344 191.226562 133.894531 201.675781 139.484375 210.488281 C 140.632812 212.296875 140.90625 214.527344 140.226562 216.558594 L 134.792969 232.859375 L 151.09375 227.425781 C 153.125 226.75 155.355469 227.019531 157.164062 228.167969 C 165.976562 233.761719 176.425781 237 187.652344 237 C 219.132812 237 244.652344 211.480469 244.652344 180 C 244.652344 148.519531 219.132812 123 187.652344 123 Z M 116.402344 180 C 116.402344 140.648438 148.304688 108.75 187.652344 108.75 C 227.003906 108.75 258.902344 140.648438 258.902344 180 C 258.902344 219.351562 227.003906 251.25 187.652344 251.25 C 174.878906 251.25 162.871094 247.878906 152.492188 241.980469 L 125.78125 250.882812 C 123.222656 251.738281 120.398438 251.070312 118.492188 249.164062 C 116.582031 247.253906 115.917969 244.433594 116.769531 241.871094 L 125.671875 215.164062 C 119.773438 204.785156 116.402344 192.777344 116.402344 180 Z M 187.652344 137.25 C 191.589844 137.25 194.777344 140.441406 194.777344 144.375 L 194.777344 172.875 L 223.277344 172.875 C 227.214844 172.875 230.402344 176.066406 230.402344 180 C 230.402344 183.933594 227.214844 187.125 223.277344 187.125 L 194.777344 187.125 L 194.777344 215.625 C 194.777344 219.558594 191.589844 222.75 187.652344 222.75 C 183.71875 222.75 180.527344 219.558594 180.527344 215.625 L 180.527344 187.125 L 152.027344 187.125 C 148.09375 187.125 144.902344 183.933594 144.902344 180 C 144.902344 176.066406 148.09375 172.875 152.027344 172.875 L 180.527344 172.875 L 180.527344 144.375 C 180.527344 140.441406 183.71875 137.25 187.652344 137.25 Z M 187.652344 137.25 " fill-opacity="1" fill-rule="evenodd"/></svg>