<?xml version="1.0" standalone="no"?>
<!DOCTYPE svg PUBLIC "-//W3C//DTD SVG 20010904//EN"
 "http://www.w3.org/TR/2001/REC-SVG-20010904/DTD/svg10.dtd">
<svg version="1.0" xmlns="http://www.w3.org/2000/svg"
 width="1092.000000pt" height="1092.000000pt" viewBox="0 0 1092.000000 1092.000000"
 preserveAspectRatio="xMidYMid meet">
<metadata>
Created by potrace 1.14, written by Peter Selinger 2001-2017
</metadata>
<g transform="translate(0.000000,1092.000000) scale(0.100000,-0.100000)"
fill="#000000" stroke="none">
<path d="M2920 8703 c-167 -399 -337 -798 -355 -833 -7 -14 -13 -27 -13 -30
-1 -8 -16 -46 -105 -255 -47 -110 -117 -276 -157 -370 -39 -93 -78 -185 -86
-202 -8 -18 -20 -48 -28 -65 -8 -18 -33 -78 -56 -133 -22 -55 -45 -109 -50
-120 -5 -11 -30 -69 -56 -130 -25 -60 -127 -301 -226 -535 -99 -234 -211 -497
-248 -585 -37 -88 -107 -251 -154 -363 -47 -112 -86 -205 -86 -208 0 -2 1759
-4 3908 -4 l3909 0 173 408 c96 224 214 502 263 617 49 116 95 224 102 240 27
59 95 224 95 229 0 4 -1377 6 -3060 6 -1683 0 -3060 2 -3060 4 0 3 25 64 56
138 78 184 77 182 79 188 1 3 6 16 12 30 114 267 396 934 620 1465 74 176 140
334 148 350 7 17 34 80 59 140 25 61 51 118 56 128 10 16 -33 17 -838 17
l-849 0 -53 -127z"/>
<path d="M5727 8693 c-2 -5 -26 -62 -52 -128 -26 -66 -53 -133 -60 -150 -8
-16 -34 -82 -60 -145 -25 -63 -50 -124 -55 -135 -5 -11 -25 -60 -45 -110 -20
-49 -40 -99 -45 -110 -5 -11 -18 -42 -29 -70 -26 -69 -110 -276 -121 -300 -10
-21 -86 -209 -119 -291 l-19 -49 2471 0 2470 0 72 170 c40 94 125 294 190 445
64 151 122 289 130 305 7 17 59 138 115 270 56 132 109 255 116 273 l14 32
-2484 0 c-1367 0 -2487 -3 -2489 -7z"/>
<path d="M895 3872 c-14 -30 -25 -58 -25 -62 0 -4 -6 -20 -14 -36 -22 -47 -37
-81 -186 -434 -135 -318 -161 -379 -181 -425 -5 -11 -31 -74 -59 -140 -28 -66
-56 -131 -62 -145 -5 -14 -43 -101 -83 -195 -40 -93 -71 -171 -70 -173 6 -7
1649 -2 1656 5 4 4 73 166 154 358 80 193 175 420 211 505 36 85 69 164 74
175 12 25 240 567 240 569 0 1 -26 3 -57 3 -32 1 -137 4 -233 7 -96 3 -251 8
-345 11 -93 3 -222 8 -285 10 -63 2 -225 7 -360 11 -135 3 -269 7 -298 9 l-52
2 -25 -55z"/>
<path d="M3752 3880 c-11 -8 -142 -315 -142 -332 0 -5 87 -8 194 -8 l193 0 66
158 c36 86 68 164 69 171 3 13 -26 15 -185 16 -104 0 -192 -2 -195 -5z"/>
<path d="M7845 3865 c-7 -11 -23 -45 -35 -75 -24 -59 -34 -82 -74 -174 -14
-32 -26 -62 -26 -67 0 -5 87 -9 193 -9 191 0 194 0 205 23 33 67 131 312 126
316 -3 3 -89 6 -191 6 -175 0 -186 -1 -198 -20z"/>
<path d="M3037 3743 c-4 -7 -295 -689 -434 -1018 -30 -71 -61 -143 -68 -160
-80 -180 -90 -221 -67 -271 26 -56 49 -62 238 -63 l171 -2 62 148 c35 81 66
153 68 161 4 8 -4 12 -23 11 -43 -3 -54 0 -54 11 0 8 315 757 385 915 13 28
101 235 112 263 4 9 -38 12 -190 12 -108 0 -198 -3 -200 -7z"/>
<path d="M7153 3735 c-146 -45 -264 -179 -334 -377 -7 -21 -20 -39 -29 -39 -8
-1 -45 -1 -81 -1 l-66 0 -18 -42 c-71 -159 -95 -218 -91 -224 2 -4 36 -6 75
-6 39 1 71 -2 71 -6 0 -5 -10 -30 -21 -57 -12 -26 -32 -73 -44 -103 -12 -30
-75 -179 -140 -330 -64 -151 -121 -285 -126 -297 l-9 -23 200 0 c110 0 200 4
200 9 0 7 249 600 280 666 5 11 19 45 31 75 13 30 27 58 32 61 4 3 57 5 118 5
l109 -1 16 35 c8 19 19 44 24 55 28 68 53 123 66 146 18 35 12 37 -105 35 -51
0 -97 2 -102 5 -13 8 25 93 49 111 15 10 58 13 178 13 l157 -1 34 76 c18 41
37 84 42 95 5 11 18 41 30 67 12 26 21 52 21 58 0 16 -515 12 -567 -5z"/>
<path d="M8404 3575 c-13 -31 -24 -58 -24 -60 0 -2 -10 -28 -23 -57 -13 -29
-32 -72 -42 -95 -10 -24 -25 -44 -34 -44 -9 -1 -41 -1 -72 -2 l-56 0 -20 -46
c-38 -86 -82 -196 -85 -211 -2 -11 11 -14 62 -15 36 -1 64 -5 63 -10 -1 -6
-49 -122 -108 -260 -58 -137 -112 -273 -120 -301 -28 -108 23 -207 120 -233
23 -6 137 -11 276 -11 l236 0 64 152 c35 83 65 155 67 159 2 4 -59 7 -135 7
-198 0 -193 -1 -193 21 0 16 166 421 189 461 7 12 38 15 181 15 145 0 174 3
178 15 3 8 13 33 22 55 41 93 80 188 80 194 0 4 -75 7 -167 8 -139 0 -167 3
-165 14 5 19 100 249 112 271 6 10 10 20 10 23 0 3 -88 5 -196 5 l-195 0 -25
-55z"/>
<path d="M3496 3286 c-8 -17 -58 -134 -111 -261 -94 -223 -122 -287 -150 -350
-7 -16 -29 -69 -49 -118 -20 -48 -45 -106 -55 -130 -26 -56 -81 -188 -81 -193
0 -3 88 -3 196 -2 l195 3 90 210 c49 116 94 219 99 230 5 11 22 52 38 90 17
39 73 171 125 295 53 124 97 232 99 240 3 13 -24 15 -189 16 l-192 1 -15 -31z"/>
<path d="M3975 3310 c-2 -3 -3 -247 -3 -542 l-1 -538 198 0 198 0 24 28 c13
15 102 119 198 232 96 113 177 207 180 210 3 3 22 25 42 50 20 25 47 56 59 70
12 14 41 48 65 75 23 28 113 132 199 232 86 100 152 184 148 185 -4 2 -99 4
-211 3 l-204 0 -65 -80 c-35 -44 -79 -98 -96 -119 -17 -22 -36 -44 -41 -50 -6
-6 -73 -89 -150 -185 l-140 -174 -5 304 -5 303 -193 1 c-107 0 -195 -2 -197
-5z"/>
<path d="M5542 3308 c-96 -16 -205 -100 -274 -209 -29 -45 -208 -454 -262
-597 -42 -110 0 -220 98 -257 35 -13 103 -15 470 -13 l430 3 63 145 c34 80 63
150 63 156 0 8 -93 11 -312 12 -411 0 -388 -1 -388 16 0 8 9 35 20 60 l19 46
380 0 379 0 82 192 c45 105 84 212 87 237 10 89 -25 164 -94 197 -34 16 -72
18 -379 18 -188 1 -359 -2 -382 -6z m413 -319 c7 -10 -20 -96 -35 -112 -6 -6
-264 -12 -352 -8 -15 1 -15 5 3 49 35 81 39 82 220 82 102 0 160 -4 164 -11z"/>
<path d="M7612 3311 c-4 -3 -27 -53 -51 -111 -25 -58 -52 -123 -62 -145 -14
-31 -321 -752 -346 -812 -4 -10 38 -13 191 -13 l197 0 20 47 c11 27 27 61 34
78 8 16 59 138 115 270 56 132 108 254 115 270 8 17 32 75 55 130 23 55 50
120 61 144 20 44 59 139 59 145 0 5 -380 2 -388 -3z"/>
</g>
</svg>
